<svg xmlns="http://www.w3.org/2000/svg" viewBox="0 0 40 40" width="40" height="40"><path fill="#dff0fe" d="M6.364,37.5c-0.476,0-0.864-0.397-0.864-0.885V3.385C5.5,2.897,5.888,2.5,6.364,2.5H16.54 C16.513,2.668,16.5,2.834,16.5,3c0,1.93,1.57,3.5,3.5,3.5s3.5-1.57,3.5-3.5c0-0.166-0.013-0.332-0.04-0.5h10.176 c0.476,0,0.864,0.397,0.864,0.885v33.23c0,0.488-0.388,0.885-0.864,0.885H6.364z"/><path fill="#4788c7" d="M33.636,3C33.837,3,34,3.173,34,3.385v33.231C34,36.827,33.837,37,33.636,37H6.364 C6.163,37,6,36.827,6,36.615V3.385C6,3.173,6.163,3,6.364,3H16c0,2.206,1.794,4,4,4s4-1.794,4-4H33.636 M33.636,2h-10.82 C22.928,2.314,23,2.647,23,3c0,1.657-1.343,3-3,3s-3-1.343-3-3c0-0.353,0.072-0.686,0.184-1H6.364C5.611,2,5,2.62,5,3.385v33.231 C5,37.38,5.611,38,6.364,38h27.273C34.389,38,35,37.38,35,36.615V3.385C35,2.62,34.389,2,33.636,2L33.636,2z"/><path fill="#98ccfd" d="M8 5H32V35H8z"/><path fill="#4788c7" d="M20,1c1.103,0,2,0.897,2,2s-0.897,2-2,2s-2-0.897-2-2S18.897,1,20,1 M20,0c-1.657,0-3,1.343-3,3 s1.343,3,3,3s3-1.343,3-3S21.657,0,20,0L20,0z"/><path fill="#b6dcfe" d="M15,7.5c-0.827,0-1.5-0.673-1.5-1.5V2.5h4.037l0.038-0.107C17.526,2.587,17.5,2.791,17.5,3 c0,1.378,1.122,2.5,2.5,2.5s2.5-1.122,2.5-2.5c0-0.209-0.026-0.413-0.075-0.607L22.463,2.5H26.5V6c0,0.827-0.673,1.5-1.5,1.5H15z M20.009,0.5 M19.991,0.5 M20.007,0.5 M19.993,0.5 M19.997,0.5c0.001,0,0.006,0,0.007,0C20.002,0.5,19.998,0.5,19.997,0.5z"/><path fill="#4788c7" d="M26,3v3c0,0.551-0.449,1-1,1H15c-0.551,0-1-0.449-1-1V3h3c0,1.654,1.346,3,3,3s3-1.346,3-3H26 M20,0 c-1.304,0-2.403,0.837-2.816,2H13v4c0,1.105,0.895,2,2,2h10c1.105,0,2-0.895,2-2V2h-4.184C22.403,0.837,21.304,0,20,0L20,0z M20,5 c-1.103,0-2-0.897-2-2c0-1.103,0.897-2,2-2s2,0.897,2,2C22,4.103,21.103,5,20,5L20,5z"/><path fill="#fff" d="M13 22A1 1 0 1 0 13 24 1 1 0 1 0 13 22zM24 29A1 1 0 1 0 24 31 1 1 0 1 0 24 29zM24 13A1 1 0 1 0 24 15 1 1 0 1 0 24 13zM23 11h2l-1-2L23 11z"/><path fill="none" stroke="#fff" stroke-miterlimit="10" d="M13.333 11.667L17.333 15.667M13.333 15.667L17.333 11.667M22.667 20.667L26.667 24.667M22.667 24.667L26.667 20.667M14.69 24.423L22.077 29M22.336 15.312L14.69 21.52"/></svg>