<svg xmlns="http://www.w3.org/2000/svg" viewBox="0 0 40 40" width="120" height="120"><path fill="#dff0fe" d="M20,38.459C18.295,37.717,4.636,30.987,4.501,6.367L20,1.523l15.499,4.844 C35.364,30.963,21.707,37.713,20,38.459z"/><path fill="#4788c7" d="M20,2.048l14.996,4.686c-0.258,23.19-12.752,30.119-15,31.177 C17.735,36.869,5.26,30.057,5.004,6.734L20,2.048 M20,1L4,6c0,27.141,16,33,16,33s16-5.932,16-33L20,1L20,1z"/><path fill="#98ccfd" d="M29,19c0,5.01-4.082,9-9,9c-4.917,0-9-3.99-9-9s3.99-9,9-9S29,13.99,29,19z"/><path fill="#4788c7" d="M23.374 22.292c.205.102.409.102.512.306.306.307.306.819.409 1.125.102.409.205.818.409 1.227.102.512.307 1.023.409 1.432.067-.052.145-.101.219-.151C27.545 24.6 29 21.985 29 19c0-2.651-1.124-5.009-2.919-6.649-.217-.071-.441-.078-.661.02-.307.103-.511.512-.716.716-.205.307-.409.614-.614.92-.103.102-.205.307-.103.409 0 .102.103.102.205.102.205.103.307.103.512.205.102 0 .205.103.102.205 0 0 0 .103-.102.103-.512.511-1.023.92-1.534 1.431-.102.102-.205.307-.205.409 0 .102.102.102.102.205 0 .103-.102.103-.205.205-.205.103-.409.205-.511.307-.102.205 0 .511-.102.716-.102.511-.41.92-.614 1.432-.205.306-.306.614-.511.92 0 .409-.103.716.102 1.023C21.739 22.394 22.658 21.985 23.374 22.292zM23.186 10.573C22.197 10.205 21.125 10 20 10c-.185 0-.368.009-.55.02-.128.199-.23.394-.268.51-.102.511.307.409.716.511 0 0 .102.818.102.92.102.512-.205.818-.205 1.33 0 .307 0 .818.205 1.023h.102c.102 0 .205-.102.409-.205.307-.205.614-.511.92-.716.307-.205.614-.511.819-.716.307-.205.511-.614.614-.921.102-.205.453-.807.35-1.114C23.206 10.627 23.196 10.598 23.186 10.573zM11.205 19.427c.307.614.92 1.228 1.534 1.636.409.307 1.227.307 1.636.818.307.41.205.92.205 1.432 0 .614.409 1.125.614 1.636.102.307.205.716.307 1.023 0 .102.102.716.102.818.033.016.06.054.084.1.546.299 1.127.54 1.732.722.008.001.018-.006.025-.004.102 0 .511-.614.511-.716.307-.307.511-.716.818-.92.205-.102.409-.205.614-.41.205-.205.307-.614.409-.92.102-.204.205-.613.102-.92-.065-.194-.102-.307-.307-.409-.614-.205-1.227-.205-1.739-.716-.102-.205-.102-.409-.205-.614-.205-.205-.716-.307-1.023-.409h-1.33H14.58c-.307-.102-.511-.511-.716-.818 0-.102 0-.307-.205-.307-.205-.102-.409.103-.614 0-.102-.102-.102-.205-.102-.306 0-.307.205-.614.409-.819.307-.205.614.102.92.102.102 0 .102 0 .205.102.307.102.409.511.409.819v.205c0 .102.102.102.205.102.102-.511.102-1.023.205-1.534 0-.614.614-1.228 1.125-1.432.205-.102.307.103.511 0 .614-.205 2.148-.818 1.841-1.636-.205-.716-.818-1.431-1.636-1.33-.205.103-.307.205-.511.307-.307.205-.92.818-1.227.818-.511-.102-.511-.818-.409-1.125.102-.409 1.023-1.738 1.636-1.534.102.102.307.307.409.409.205.102.511.102.818.102.102 0 .205 0 .307-.102.102-.102.102-.102.102-.205 0-.307-.307-.614-.511-.819-.205-.205-.511-.409-.818-.511-.654-.196-2.035.036-3.161.416C12.061 14.114 11 16.42 11 19c0 .043.004.085.005.128C11.078 19.232 11.148 19.333 11.205 19.427z"/><g><path fill="#4788c7" d="M20,11c4.486,0,8,3.514,8,8c0,4.411-3.589,8-8,8s-8-3.589-8-8C12,14.514,15.514,11,20,11 M20,10 c-5.01,0-9,3.99-9,9s4.083,9,9,9c4.918,0,9-3.99,9-9S25.01,10,20,10L20,10z"/></g></svg>