<svg xmlns="http://www.w3.org/2000/svg" viewBox="0 0 64 64" width="64" height="64"><linearGradient id="pw_vcWmOU08Ar_bw1sy_ta" x1="43.5" x2="43.5" y1="21" y2="45" gradientUnits="userSpaceOnUse" spreadMethod="reflect"><stop offset="0" stop-color="#6dc7ff"/><stop offset="1" stop-color="#e6abff"/></linearGradient><path fill="url(#pw_vcWmOU08Ar_bw1sy_ta)" d="M41,44V22c0-0.552,0.448-1,1-1h3c0.552,0,1,0.448,1,1v22c0,0.552-0.448,1-1,1h-3 C41.448,45,41,44.552,41,44z"/><linearGradient id="pw_vcWmOU08Ar_bw1sy_tb" x1="35.5" x2="35.5" y1="25" y2="45" gradientUnits="userSpaceOnUse" spreadMethod="reflect"><stop offset="0" stop-color="#6dc7ff"/><stop offset="1" stop-color="#e6abff"/></linearGradient><path fill="url(#pw_vcWmOU08Ar_bw1sy_tb)" d="M33,44V26c0-0.552,0.448-1,1-1h3c0.552,0,1,0.448,1,1v18c0,0.552-0.448,1-1,1h-3 C33.448,45,33,44.552,33,44z"/><linearGradient id="pw_vcWmOU08Ar_bw1sy_tc" x1="27.5" x2="27.5" y1="29" y2="45" gradientUnits="userSpaceOnUse" spreadMethod="reflect"><stop offset="0" stop-color="#6dc7ff"/><stop offset="1" stop-color="#e6abff"/></linearGradient><path fill="url(#pw_vcWmOU08Ar_bw1sy_tc)" d="M25,44V30c0-0.552,0.448-1,1-1h3c0.552,0,1,0.448,1,1v14c0,0.552-0.448,1-1,1h-3 C25.448,45,25,44.552,25,44z"/><linearGradient id="pw_vcWmOU08Ar_bw1sy_td" x1="19.5" x2="19.5" y1="32" y2="45" gradientUnits="userSpaceOnUse" spreadMethod="reflect"><stop offset="0" stop-color="#6dc7ff"/><stop offset="1" stop-color="#e6abff"/></linearGradient><path fill="url(#pw_vcWmOU08Ar_bw1sy_td)" d="M17,44V33c0-0.552,0.448-1,1-1h3c0.552,0,1,0.448,1,1v11c0,0.552-0.448,1-1,1h-3 C17.448,45,17,44.552,17,44z"/><linearGradient id="pw_vcWmOU08Ar_bw1sy_te" x1="32" x2="32" y1="9" y2="51" gradientUnits="userSpaceOnUse" spreadMethod="reflect"><stop offset="0" stop-color="#1a6dff"/><stop offset="1" stop-color="#c822ff"/></linearGradient><path fill="none" stroke="url(#pw_vcWmOU08Ar_bw1sy_te)" stroke-miterlimit="10" stroke-width="2" d="M52.857,27.501 C52.941,26.844,53,26.18,53,25.5C53,16.94,46.06,10,37.5,10c-6.481,0-12.027,3.981-14.341,9.629C21.879,18.612,20.262,18,18.5,18 c-4.142,0-7.5,3.358-7.5,7.5c0,0.682,0.099,1.34,0.27,1.968C6.493,28.865,3,33.271,3,38.5C3,44.851,8.149,50,14.5,50s29.494,0,35,0 C55.851,50,61,44.851,61,38.5C61,33.317,57.57,28.937,52.857,27.501z"/></svg>