<svg xmlns="http://www.w3.org/2000/svg" viewBox="0 0 16 16" width="40" height="40"><path fill="#c2e8ff" d="M7.999,15.458c-1.062-0.477-6.363-3.343-6.496-13.082L8,0.52l6.497,1.856 C14.363,12.089,9.06,14.978,7.999,15.458z"/><path fill="#7496c4" d="M8,1.04l5.989,1.711C13.744,11.347,9.3,14.239,7.999,14.903C6.69,14.24,2.255,11.362,2.011,2.751 L8,1.04 M8,0L1,2c0,11.428,7,14,7,14s7-2.603,7-14L8,0L8,0z"/><path fill="#e6f7ff" d="M12,7c0,2.227-1.814,4-4,4c-2.186,0-4-1.773-4-4s1.773-4,4-4S12,4.773,12,7z"/><path fill="#bae0bd" d="M10.532,9.41c-0.064-0.133-0.1-0.277-0.138-0.431l-0.028-0.116c-0.028-0.142-0.073-0.37-0.236-0.563 c-0.124-0.185-0.302-0.247-0.383-0.275c-0.26-0.111-0.463-0.118-0.626-0.124C9.084,7.9,9.034,7.898,8.994,7.894 c0-0.004,0-0.008,0-0.012C9.019,7.839,9.04,7.796,9.062,7.753c0.024-0.05,0.049-0.101,0.081-0.15l0.028-0.042l0.02-0.047 C9.218,7.444,9.252,7.38,9.285,7.317c0.07-0.137,0.148-0.29,0.194-0.479C9.5,6.779,9.511,6.723,9.517,6.672l0.039-0.02l0.066-0.06 C9.827,6.475,9.863,6.26,9.863,6.145V6.128c0.074-0.07,0.36-0.328,0.43-0.393h0.298l0.034-0.407 c0.043-0.124,0.04-0.262-0.012-0.387l-0.117-0.276l0.011-0.015c-0.004,0.007-0.006,0.01-0.005,0.01 c0.003,0,0.024-0.027,0.052-0.062C11.166,5.247,11.5,6.09,11.5,7C11.5,7.913,11.153,8.764,10.532,9.41z"/><path fill="#5e9c76" d="M10.814,5.945C10.936,6.276,11,6.632,11,7c0,0.456-0.101,0.895-0.29,1.289 c-0.045-0.096-0.103-0.195-0.18-0.29c-0.208-0.294-0.491-0.402-0.618-0.447L9.894,7.544c-0.047-0.02-0.093-0.037-0.138-0.052 c0.068-0.134,0.15-0.305,0.203-0.513c0.001-0.004,0.002-0.007,0.003-0.011c0.238-0.188,0.337-0.419,0.376-0.599 c0.027-0.024,0.053-0.048,0.08-0.072c0.093-0.083,0.185-0.167,0.278-0.255C10.738,6.013,10.777,5.98,10.814,5.945 M10.562,4.021 c-0.051,0-0.102,0.01-0.153,0.033c-0.136,0.046-0.227,0.227-0.318,0.318C10,4.508,9.909,4.645,9.818,4.781 C9.772,4.827,9.727,4.918,9.772,4.963c0,0.045,0.046,0.045,0.091,0.045C9.954,5.054,10,5.054,10.091,5.099 c0.045,0,0.091,0.046,0.045,0.091c0,0,0,0.046-0.045,0.046C9.863,5.463,9.636,5.645,9.409,5.872 C9.364,5.917,9.318,6.008,9.318,6.054c0,0.045,0.045,0.045,0.045,0.091c0,0.046-0.045,0.046-0.091,0.091 C9.182,6.281,9.091,6.327,9.045,6.372C9,6.463,9.045,6.6,9,6.69C8.954,6.918,8.818,7.1,8.727,7.327 C8.636,7.463,8.591,7.599,8.5,7.736c0,0.182-0.046,0.318,0.045,0.455C8.773,8.509,9.182,8.327,9.5,8.463 c0.091,0.045,0.182,0.045,0.227,0.136c0.136,0.137,0.136,0.364,0.182,0.5C9.954,9.281,10,9.463,10.091,9.645 c0.045,0.227,0.136,0.455,0.182,0.636c0.03-0.023,0.065-0.045,0.098-0.067C11.353,9.489,12,8.327,12,7 c0-1.178-0.5-2.226-1.297-2.955C10.656,4.03,10.609,4.021,10.562,4.021L10.562,4.021z"/><path fill="#bae0bd" d="M8.51,3.971c0-0.061-0.006-0.127-0.02-0.197c0,0.002-0.013-0.135-0.024-0.243 c0.116,0.016,0.23,0.036,0.345,0.063L8.798,3.624C8.77,3.71,8.73,3.766,8.717,3.778C8.639,3.85,8.571,3.915,8.51,3.971z"/><path fill="#5e9c76" d="M8,3C7.918,3,7.837,3.004,7.756,3.009C7.699,3.097,7.654,3.184,7.636,3.236 C7.591,3.463,7.773,3.417,7.955,3.463c0,0,0.045,0.364,0.045,0.409c0.045,0.227-0.091,0.364-0.091,0.591 c0,0.136,0,0.364,0.091,0.455h0.045c0.045,0,0.091-0.045,0.182-0.091C8.364,4.735,8.5,4.599,8.636,4.508 C8.773,4.417,8.909,4.281,9,4.19c0.136-0.091,0.227-0.273,0.273-0.409C9.318,3.69,9.474,3.422,9.429,3.286 C9.425,3.279,9.42,3.266,9.416,3.255C8.976,3.091,8.5,3,8,3L8,3z"/><g><path fill="#bae0bd" d="M6.512,10.164l-0.018-0.15c0,0-0.131-0.452-0.157-0.529C6.294,9.374,6.25,9.289,6.205,9.202 C6.149,9.095,6.091,8.984,6.091,8.917c0,0,0.008-0.217,0.007-0.272h0.329c0,0,0.088,0.025,0.114,0.034 C6.557,8.726,6.574,8.775,6.6,8.824l0.036,0.071l0.056,0.056C6.94,9.201,7.223,9.28,7.438,9.333L7.436,9.349 C7.393,9.481,7.366,9.566,7.35,9.592C7.343,9.595,7.309,9.613,7.234,9.65c-0.208,0.134-0.309,0.267-0.39,0.373 c-0.034,0.045-0.067,0.092-0.107,0.132l-0.076,0.076C6.61,10.209,6.561,10.188,6.512,10.164z M4.504,6.909 c0.032-0.928,0.382-1.745,0.994-2.367C5.501,4.541,5.505,4.54,5.509,4.539C5.39,4.714,5.312,4.882,5.288,4.977 C5.232,5.142,5.212,5.469,5.369,5.739c0.107,0.185,0.28,0.309,0.487,0.351c0.01,0,0.086-0.001,0.114-0.003 C5.771,6.225,5.58,6.439,5.481,6.69c-0.009,0-0.018,0-0.026,0C5.402,6.654,5.289,6.612,5.147,6.612c-0.136,0-0.267,0.04-0.38,0.115 C4.69,6.8,4.611,6.884,4.544,6.979C4.542,6.975,4.515,6.927,4.504,6.909z M6.454,5.904c0.073-0.051,0.141-0.106,0.208-0.161 c0.044-0.036,0.084-0.07,0.114-0.092c0.01-0.002,0.034-0.017,0.064-0.035C6.872,5.64,6.906,5.68,6.935,5.732 C6.859,5.783,6.73,5.852,6.558,5.915C6.558,5.915,6.456,5.904,6.454,5.904z"/><path fill="#5e9c76" d="M6.366,3.886c-0.319,0-0.758,0.09-1.134,0.217C4.472,4.828,4,5.853,4,7 c0,0.019,0.002,0.038,0.002,0.057C4.035,7.103,4.066,7.148,4.091,7.19C4.227,7.463,4.5,7.736,4.773,7.917 C4.955,8.054,5.318,8.054,5.5,8.281C5.636,8.463,5.591,8.69,5.591,8.917c0,0.273,0.182,0.5,0.273,0.727 C5.909,9.781,5.955,9.963,6,10.099c0,0.045,0.045,0.318,0.045,0.364c0.015,0.007,0.026,0.024,0.037,0.045 c0.243,0.133,0.501,0.24,0.77,0.321c0,0,0,0,0,0c0.003,0,0.006-0.002,0.009-0.002c0.001,0,0.001,0,0.001,0 c0.045,0,0.227-0.273,0.227-0.318c0.136-0.136,0.227-0.318,0.364-0.409c0.091-0.045,0.182-0.091,0.273-0.182 c0.091-0.091,0.136-0.273,0.182-0.409C7.955,9.417,8,9.235,7.955,9.099C7.926,9.013,7.909,8.963,7.818,8.917 C7.545,8.826,7.273,8.826,7.045,8.599C7,8.508,7,8.417,6.955,8.326C6.864,8.235,6.636,8.19,6.5,8.144H5.909H5.591 C5.455,8.099,5.364,7.917,5.273,7.781c0-0.045,0-0.137-0.091-0.137c-0.019-0.01-0.038-0.013-0.057-0.013 c-0.052,0-0.105,0.026-0.157,0.026c-0.019,0-0.039-0.004-0.058-0.013C4.864,7.599,4.864,7.553,4.864,7.508 c0-0.137,0.091-0.273,0.182-0.364C5.08,7.121,5.114,7.113,5.148,7.113c0.102,0,0.205,0.077,0.307,0.077 c0.045,0,0.045,0,0.091,0.045C5.682,7.28,5.727,7.462,5.727,7.599V7.69c0,0.045,0.045,0.045,0.091,0.045 C5.864,7.508,5.864,7.28,5.909,7.053c0-0.273,0.273-0.546,0.5-0.636c0.019-0.01,0.036-0.013,0.052-0.013 c0.044,0,0.079,0.026,0.122,0.026c0.016,0,0.033-0.004,0.053-0.013C6.909,6.326,7.591,6.053,7.455,5.69 C7.37,5.392,7.125,5.095,6.796,5.095c-0.023,0-0.046,0.001-0.069,0.004C6.636,5.145,6.591,5.19,6.5,5.236 C6.364,5.327,6.091,5.599,5.955,5.599c-0.227-0.045-0.227-0.364-0.182-0.5C5.815,4.93,6.171,4.408,6.44,4.408 c0.02,0,0.04,0.003,0.06,0.009c0.045,0.045,0.136,0.136,0.182,0.182c0.091,0.045,0.227,0.045,0.364,0.045 c0.045,0,0.091,0,0.136-0.045c0.045-0.045,0.045-0.045,0.045-0.091c0-0.136-0.136-0.273-0.227-0.364 C6.909,4.054,6.773,3.963,6.636,3.918C6.564,3.896,6.471,3.886,6.366,3.886L6.366,3.886z"/></g><g><path fill="#7496c4" d="M8,4c1.682,0,3,1.318,3,3c0,1.654-1.346,3-3,3S5,8.654,5,7C5,5.318,6.318,4,8,4 M8,3 C5.773,3,4,4.773,4,7s1.814,4,4,4c2.186,0,4-1.773,4-4S10.227,3,8,3L8,3z"/></g></svg>