<?xml version="1.0" encoding="UTF-8" standalone="yes"?>
<svg xmlns="http://www.w3.org/2000/svg" viewBox="0 0 50 50" width="100" height="100" fill="#000000">
  <path d="M 5 4 C 4.45 4 4 4.45 4 5 L 4 15 C 4 15.55 4.45 16 5 16 L 45 16 C 45.55 16 46 15.55 46 15 L 46 5 C 46 4.45 45.55 4 45 4 L 5 4 z M 10 9 C 10.55 9 11 9.45 11 10 C 11 10.55 10.55 11 10 11 C 9.45 11 9 10.55 9 10 C 9 9.45 9.45 9 10 9 z M 14 9 C 14.55 9 15 9.45 15 10 C 15 10.55 14.55 11 14 11 C 13.45 11 13 10.55 13 10 C 13 9.45 13.45 9 14 9 z M 18 9 C 18.55 9 19 9.45 19 10 C 19 10.55 18.55 11 18 11 C 17.45 11 17 10.55 17 10 C 17 9.45 17.45 9 18 9 z M 4 19 L 4 45 A 1.0001 1.0001 0 0 0 5 46 L 45 46 A 1.0001 1.0001 0 0 0 46 45 L 46 19 L 44 19 L 44 44 L 6 44 L 6 19 L 4 19 z M 10 19 C 9.448 19 9 19.447 9 20 L 9 40 C 9 40.553 9.448 41 10 41 L 23 41 C 23.552 41 24 40.553 24 40 L 24 20 C 24 19.447 23.552 19 23 19 L 10 19 z M 27 19 L 27 21 L 41 21 L 41 19 L 27 19 z M 27 24 L 27 26 L 41 26 L 41 24 L 27 24 z M 27 29 L 27 31 L 41 31 L 41 29 L 27 29 z M 27 34 L 27 36 L 41 36 L 41 34 L 27 34 z M 27 39 L 27 41 L 41 41 L 41 39 L 27 39 z"/>
</svg>
