<?xml version="1.0" encoding="UTF-8"?>
<svg xmlns="http://www.w3.org/2000/svg" xmlns:xlink="http://www.w3.org/1999/xlink" width="96pt" height="96pt" viewBox="0 0 96 96" version="1.1">
<g id="surface255285">
<path style=" stroke:none;fill-rule:nonzero;fill:rgb(0%,0%,0%);fill-opacity:1;" d="M 24 8 C 19.59375 8 16 11.59375 16 16 L 16 60 C 16 62.515625 17.25 64.859375 19.25 66.375 L 48 88 L 76.75 66.375 C 78.75 64.859375 80 62.515625 80 60 L 80 16 C 80 11.59375 76.40625 8 72 8 Z M 48 20 C 59.046875 20 68 28.953125 68 40 C 68 51.046875 59.046875 60 48 60 C 36.953125 60 28 51.046875 28 40 C 28 28.953125 36.953125 20 48 20 Z M 48 24.75 C 47.921875 24.75 47.875 24.875 47.75 24.875 C 47.828125 25.359375 47.828125 26.046875 47.875 26.125 C 48 27.078125 47.578125 27.796875 47.5 28.75 C 47.421875 29.3125 47.484375 30.34375 48 30.75 C 48.125 30.828125 48.125 30.875 48.25 30.875 C 48.484375 30.921875 48.765625 30.703125 49 30.5 C 49.59375 30.015625 50.15625 29.484375 50.75 29 L 52.5 27.625 C 53.015625 27.140625 53.34375 26.515625 53.625 25.875 C 51.859375 25.1875 49.953125 24.75 48 24.75 Z M 41.5 26.375 C 36.375 28.8125 32.75 33.953125 32.75 40 C 32.75 41.234375 32.96875 42.46875 33.25 43.625 C 33.40625 43.75 33.546875 43.875 33.75 44 C 34.59375 44.71875 36.28125 44.703125 36.875 45.625 C 37.46875 46.546875 37.171875 47.5 37.25 48.5 C 37.328125 49.578125 37.96875 50.578125 38.375 51.625 C 40.171875 53.109375 42.3125 54.1875 44.625 54.75 C 44.9375 54.34375 45.1875 54.03125 45.625 53.75 C 46.03125 53.46875 46.5625 53.40625 46.875 53 C 47.234375 52.5625 47.46875 51.6875 47.625 51.125 C 47.828125 50.53125 48 49.8125 47.875 49.125 C 47.796875 48.8125 47.5625 48.578125 47.25 48.5 C 45.96875 48.09375 44.71875 48.078125 43.875 47 C 43.59375 46.6875 43.65625 46.1875 43.375 45.875 C 43.015625 45.46875 41.984375 45.28125 41.5 45.125 L 39 45 C 38.515625 45 37.984375 45.078125 37.5 45 C 36.859375 44.875 36.5625 43.9375 36.25 43.375 C 36.09375 43.171875 35.859375 42.828125 35.625 42.75 C 35.265625 42.625 34.8125 42.953125 34.5 42.75 C 34.296875 42.625 34.25 42.359375 34.25 42.125 C 34.296875 41.5625 34.6875 40.859375 35.125 40.5 C 35.640625 40.09375 36.3125 40.671875 36.875 40.875 C 37 40.921875 37.171875 40.921875 37.25 41 C 37.765625 41.28125 37.953125 41.90625 38 42.5 C 38.046875 42.65625 38.046875 42.84375 38.125 43 C 38.171875 43.125 38.34375 43.25 38.5 43.25 C 38.625 42.296875 38.671875 41.328125 38.75 40.375 C 38.828125 39.25 40 37.859375 41 37.5 C 41.40625 37.34375 41.6875 37.625 42 37.5 C 43.234375 37.015625 46.109375 35.84375 45.625 34.25 C 45.21875 32.890625 44.0625 31.421875 42.5 31.625 C 42.09375 31.671875 41.6875 31.890625 41.375 32.125 C 40.859375 32.484375 39.6875 33.796875 39 33.75 C 38.046875 33.671875 37.890625 32.3125 38.125 31.625 C 38.40625 30.75 40.171875 28.1875 41.25 28.625 C 41.609375 28.75 41.9375 29.171875 42.25 29.375 C 42.734375 29.65625 43.3125 29.625 43.875 29.625 C 44.109375 29.625 44.34375 29.625 44.5 29.5 C 44.625 29.375 44.625 29.15625 44.625 29 C 44.625 28.359375 44.140625 27.8125 43.625 27.375 C 43.140625 26.9375 42.59375 26.53125 42 26.375 C 41.84375 26.328125 41.65625 26.375 41.5 26.375 Z M 57.5 28.25 C 57.421875 28.375 57.328125 28.5 57.25 28.625 C 56.8125 29.1875 56.28125 29.78125 55.875 30.375 C 55.671875 30.609375 55.59375 31.015625 55.75 31.25 C 55.828125 31.375 56 31.421875 56.125 31.5 C 56.4375 31.625 56.71875 31.75 57 31.875 C 57.15625 31.953125 57.296875 32 57.25 32.125 C 57.25 32.203125 57.296875 32.328125 57.25 32.375 C 56.25 33.328125 55.125 34.046875 54.125 35 C 53.921875 35.203125 53.625 35.59375 53.75 35.875 C 53.828125 36.03125 54 36.09375 54 36.25 C 54 36.453125 53.828125 36.546875 53.625 36.625 C 53.34375 36.75 52.828125 36.96875 52.625 37.25 C 52.390625 37.609375 52.578125 38.1875 52.5 38.625 C 52.265625 39.546875 51.5625 40.5 51.125 41.375 C 50.8125 41.96875 50.5625 42.53125 50.25 43.125 C 50.203125 43.890625 50.015625 44.4375 50.5 45.125 C 51.546875 46.5625 53.4375 45.890625 54.875 46.375 C 55.1875 46.5 55.515625 46.59375 55.75 46.875 C 56.265625 47.46875 56.390625 48.359375 56.625 49.125 C 56.859375 49.921875 57.140625 50.734375 57.375 51.5 C 57.375 51.625 57.453125 51.75 57.5 51.875 C 60.984375 49.078125 63.25 44.796875 63.25 40 C 63.25 35.234375 60.984375 31.015625 57.5 28.25 Z M 57.5 28.25 "/>
</g>
</svg>
